<svg width="44" height="34" viewBox="0 0 44 34" fill="none" xmlns="http://www.w3.org/2000/svg">
<g clip-path="url(#clip0_4480_115)">
<rect width="44" height="34" fill="white"/>
<path d="M41.2032 1.69324H2.7968C2.35672 1.69324 2 2.05003 2 2.49011V31.51C2 31.95 2.35672 32.3068 2.7968 32.3068H41.2032C41.6432 32.3068 42 31.95 42 31.51V2.49011C42 2.05003 41.6432 1.69324 41.2032 1.69324ZM37.5538 30.7132H6.44617V28.235H31.8805C32.3205 28.235 32.6773 27.8782 32.6773 27.4382C32.6773 26.9982 32.3205 26.6414 31.8805 26.6414H6.44617V24.4103H37.5539L37.5538 30.7132ZM37.5538 22.8168H6.44617V20.5857H37.5539L37.5538 22.8168ZM37.5538 18.9921H6.44617V16.761H37.5539L37.5538 18.9921ZM37.5538 15.1674H6.44617V12.6176H37.5539L37.5538 15.1674ZM40.4064 30.7132H39.1475V11.8207C39.1475 11.3807 38.7907 11.0239 38.3507 11.0239H5.6493C5.20922 11.0239 4.8525 11.3807 4.8525 11.8207V30.7132H3.59359V3.28691H40.4063L40.4064 30.7132Z" fill="black"/>
<path d="M34.1277 4.25098H23.5937C23.1537 4.25098 22.7969 4.60777 22.7969 5.04777V9.2709C22.7969 9.7109 23.1537 10.0677 23.5937 10.0677H38.3507C38.7907 10.0677 39.1475 9.7109 39.1475 9.2709C39.1476 6.50293 36.8956 4.25098 34.1277 4.25098ZM24.3905 8.4741V5.84465H34.1277C35.7427 5.84465 37.1004 6.96785 37.4604 8.4741H24.3905Z" fill="black"/>
<path d="M20.4064 4.25098H9.87246C7.10449 4.25098 4.85254 6.50293 4.85254 9.2709C4.85254 9.7109 5.20926 10.0677 5.64934 10.0677H20.4064C20.8464 10.0677 21.2032 9.7109 21.2032 9.2709V5.04777C21.2032 4.60777 20.8465 4.25098 20.4064 4.25098ZM19.6096 8.4741H6.53973C6.8998 6.96777 8.25738 5.84465 9.87246 5.84465H19.6096V8.4741Z" fill="black"/>
<path d="M35.3066 26.6414H34.9081C34.4681 26.6414 34.1113 26.9982 34.1113 27.4382C34.1113 27.8782 34.4681 28.235 34.9081 28.235H35.3066C35.7466 28.235 36.1034 27.8782 36.1034 27.4382C36.1034 26.9982 35.7466 26.6414 35.3066 26.6414Z" fill="black"/>
</g>
<defs>
<clipPath id="clip0_4480_115">
<rect width="44" height="34" fill="white"/>
</clipPath>
</defs>
</svg>
